Coordinates
version=1
nRows=22
nColumns=18
inDegrees=yes

Units are S.I. units (second, meters, Newtons, ...)
If the header above contains a line with 'inDegrees', this indicates whether rotational values are in degrees (yes) or radians (no).

endheader
time	ground_thorax_rot_x	ground_thorax_rot_y	ground_thorax_rot_z	ground_thorax_tx	ground_thorax_ty	ground_thorax_tz	clav_prot	clav_elev	scapula_abduction	scapula_elevation	scapula_upward_rot	scapula_winging	plane_elv	shoulder_elv	axial_rot	elbow_flexion	pro_sup
      5.45000000	     -3.07556980	     -0.95929715	     -9.35163958	     -0.00214425	      0.00393159	     -0.01010599	    -36.24648816	      5.77917778	    -11.73944370	     -4.13382096	     50.21511010	     -7.90495422	      7.32115379	     88.58567874	     -7.43959625	      0.00000000	     34.32000000
      5.46000000	     -3.12673306	     -0.94466789	     -9.36974254	     -0.00213736	      0.00383022	     -0.01012392	    -36.24947161	      5.79936910	    -11.72416164	     -4.12248184	     50.24829309	     -7.91570501	      7.36390614	     88.63017738	     -7.44041217	      0.00000000	     34.32000000
      5.47000000	     -2.98881256	     -0.94065731	     -9.31045423	     -0.00217581	      0.00390519	     -0.01000279	    -36.28241375	      5.80337713	    -11.69410925	     -4.12981710	     50.35419936	     -7.94085467	      7.65930569	     88.97382786	     -7.45528709	      0.00000000	     34.32000000
      5.48000000	     -3.12242577	     -0.92011890	     -9.33970230	     -0.00217500	      0.00372549	     -0.01011450	    -36.29938315	      5.83689112	    -11.66526543	     -4.11389726	     50.43801470	     -7.96630028	      7.72633418	     89.06778338	     -7.45411490	      0.00000000	     34.32000000
      5.49000000	     -2.97363832	     -1.01906115	     -9.34568392	     -0.00213764	      0.00382707	     -0.00995084	    -36.36912952	      5.91876026	    -11.65070777	     -4.07621678	     50.63107839	     -8.03848386	      8.14863653	     89.42661438	     -7.58177363	      0.00000000	     34.32000000
      5.50000000	     -3.09317958	     -1.01521722	     -9.35784842	     -0.00214536	      0.00377577	     -0.01002421	    -36.39111441	      5.94854521	    -11.63785566	     -4.06237110	     50.70375549	     -8.06355933	      8.19026821	     89.50340071	     -7.58183064	      0.00000000	     34.32000000
      5.51000000	     -3.17837450	     -1.01545200	     -9.35805017	     -0.00219008	      0.00370435	     -0.01003062	    -36.41265558	      5.96676853	    -11.62458330	     -4.05610609	     50.77135634	     -8.08443769	      8.23465186	     89.58020027	     -7.58306980	      0.00000000	     34.32000000
      5.52000000	     -2.97550062	     -1.13115317	     -9.35186040	     -0.00220274	      0.00386094	     -0.00977391	    -36.45301168	      5.96023377	    -11.54434675	     -4.07595017	     50.95000693	     -8.11625058	      8.58451016	     89.97256908	     -7.68997970	      0.00000000	     34.32000000
      5.53000000	     -3.09930910	     -1.11205786	     -9.37032141	     -0.00225444	      0.00368285	     -0.00987834	    -36.46665728	      5.98697346	    -11.51310022	     -4.06374416	     51.02719048	     -8.13731390	      8.64129743	     90.05180287	     -7.69134967	      0.00000000	     34.32000000
      5.54000000	     -3.04467374	     -1.18499478	     -9.37665013	     -0.00219129	      0.00378511	     -0.00989131	    -36.49268447	      5.91872061	    -11.36075551	     -4.12718827	     51.24097294	     -8.14757997	      8.91073862	     90.35003278	     -7.78040866	      0.00000000	     34.32000000
      5.55000000	     -3.17717012	     -1.15670133	     -9.40965032	     -0.00209685	      0.00363086	     -0.01007204	    -36.50293463	      5.95226653	    -11.32862952	     -4.10967798	     51.31504135	     -8.16886856	      8.96719859	     90.42586175	     -7.78036351	      0.00000000	     34.32000000
      5.56000000	     -3.27787637	     -1.13704979	     -9.43398838	     -0.00204300	      0.00356720	     -0.01022601	    -36.51371259	      5.97765769	    -11.30368049	     -4.09709136	     51.37799189	     -8.18684505	      9.01938118	     90.49683337	     -7.78022614	      0.00000000	     34.32000000
      5.57000000	     -3.12011839	     -1.26521000	     -9.46233120	     -0.00199666	      0.00373139	     -0.01004066	    -36.52471485	      5.99663893	    -11.30858705	     -4.08638747	     51.40191586	     -8.19931750	      9.38985609	     90.88318938	     -7.82254800	      0.00000000	     34.32000000
      5.58000000	     -3.19112072	     -1.26466637	     -9.48447721	     -0.00208305	      0.00366072	     -0.01009247	    -36.52968715	      6.02095732	    -11.29779954	     -4.07213826	     51.43513063	     -8.21179226	      9.43298686	     90.93339305	     -7.82341424	      0.00000000	     34.32000000
      5.59000000	     -3.07809999	     -1.43638480	     -9.41656405	     -0.00210504	      0.00368818	     -0.00981897	    -36.43230119	      6.14025973	    -11.30817019	     -3.97162238	     51.27255617	     -8.19269807	      9.89016990	     91.38867129	     -7.90041652	      0.00000000	     34.32000000
      5.60000000	     -3.19644730	     -1.40283173	     -9.44765991	     -0.00213298	      0.00353029	     -0.00990295	    -36.43886018	      6.16723169	    -11.26872600	     -3.95829946	     51.34552240	     -8.21022229	      9.95516762	     91.46599003	     -7.89883978	      0.00000000	     34.32000000
      5.61000000	     -3.16722630	     -1.43587752	     -9.43297368	     -0.00215754	      0.00367690	     -0.00992369	    -36.47244697	      6.11505161	    -11.15086912	     -4.00945204	     51.53813574	     -8.22629133	     10.20199112	     91.75058717	     -7.90811035	      0.00000000	     34.32000000
      5.62000000	     -3.29655159	     -1.44367844	     -9.45504927	     -0.00220243	      0.00359951	     -0.01005117	    -36.49316542	      6.14795340	    -11.13343077	     -3.99326647	     51.61504586	     -8.25161340	     10.25578523	     91.83385096	     -7.90721980	      0.00000000	     34.32000000
      5.63000000	     -3.19179725	     -1.73769084	     -9.48322507	     -0.00211297	      0.00369467	     -0.00974258	    -36.48098391	      6.18247689	    -11.04881926	     -3.97447068	     51.70861394	     -8.26547269	     10.66300316	     92.04101267	     -7.97703574	      0.00000000	     34.32000000
      5.64000000	     -3.24810022	     -1.71739702	     -9.50194981	     -0.00216689	      0.00356117	     -0.00976517	    -36.47925379	      6.19771475	    -11.02390265	     -3.96594827	     51.74198298	     -8.27235574	     10.70285318	     92.07768464	     -7.97755730	      0.00000000	     34.32000000
      5.65000000	     -3.14563209	     -1.71324017	     -9.47565103	     -0.00213893	      0.00363291	     -0.00968696	    -36.47101167	      6.09644399	    -10.89383081	     -4.04169226	     51.84499738	     -8.24792524	     10.95941005	     92.38077842	     -7.97528199	      0.00000000	     34.32000000
      5.66000000	     -3.25481206	     -1.65254782	     -9.51246111	     -0.00207861	      0.00339594	     -0.00984626	    -36.46795526	      6.11108978	    -10.82955740	     -4.03627856	     51.92394540	     -8.25811949	     11.05724542	     92.47716210	     -7.97328291	      0.00000000	     34.32000000
